<svg width="42" height="42" viewBox="0 0 42 42" fill="none" xmlns="http://www.w3.org/2000/svg">
<mask id="mask0_1_2979" style="mask-type:alpha" maskUnits="userSpaceOnUse" x="0" y="0" width="42" height="42">
<path d="M41.8818 0H0.591431V41.2903H41.8818V0Z" fill="white"/>
</mask>
<g mask="url(#mask0_1_2979)">
<path d="M36.3248 24.2753C36.4796 24.2753 36.6 24.172 36.6344 24.0172C36.6689 23.8796 36.6 23.7247 36.4624 23.6559L36.428 23.6387C33.8818 22.5892 31.0775 22.0043 28.1527 22.0043C23.6452 21.9871 19.2581 23.3979 15.5936 26.0129C12.8753 24.7914 9.88175 24.1204 6.71616 24.1204C4.80648 24.1204 2.8796 24.3785 1.02154 24.8774C0.746269 23.5183 0.591431 22.0903 0.591431 20.6452C0.591431 9.23871 9.83014 0 21.2366 0C32.643 0 41.8818 9.23871 41.8818 20.6452C41.8818 32.0516 32.643 41.2903 21.2366 41.2903C12.2387 41.2903 4.58283 35.5269 1.76132 27.4925C7.2839 27.5957 12.2215 28.9892 15.9721 32.4989C16.0237 32.5677 16.1097 32.6194 16.2129 32.6022C16.299 32.6022 16.385 32.5677 16.4538 32.4989L16.643 32.2237C20.5828 26.8387 27.0861 24.172 34.3291 24.172C34.8452 24.172 35.3441 24.1892 35.8603 24.2409L36.3248 24.2753ZM13.4836 12.3417C13.5008 12.4278 13.5868 12.4794 13.6728 12.4794H13.7244C14.8771 12.2729 16.0298 12.2213 17.1825 12.3245C20.5029 12.6342 23.4104 13.6665 25.4406 15.9719C25.5438 16.0751 25.6298 16.0751 25.7502 15.9719C28.2965 12.9955 32.219 11.8256 36.4341 12.2213C36.6578 12.2557 36.8986 12.2729 37.1223 12.3245C37.2083 12.3245 37.3287 12.3417 37.3975 12.359C37.5352 12.3762 37.6212 12.2557 37.6212 12.1353C37.6212 12.0665 37.5696 11.9805 37.5008 11.946C37.4147 11.9116 37.3287 11.8772 37.2599 11.8256C33.5266 10.0364 29.1567 10.1912 25.561 12.2729C24.0814 11.4299 22.3954 10.8794 20.5717 10.7073C18.1631 10.4665 15.7545 10.9482 13.604 12.0665L13.5524 12.1009C13.4836 12.1525 13.4492 12.2557 13.4836 12.3417Z" fill="white"/>
</g>
</svg>
